<svg width="18" height="18" viewBox="0 0 18 18" fill="none" xmlns="http://www.w3.org/2000/svg">
<path d="M16.5 13.6875H11.25C10.9425 13.6875 10.6875 13.4325 10.6875 13.125C10.6875 12.8175 10.9425 12.5625 11.25 12.5625H16.5C16.8075 12.5625 17.0625 12.8175 17.0625 13.125C17.0625 13.4325 16.8075 13.6875 16.5 13.6875Z" fill="white"/>
<path d="M3.75 13.6875H1.5C1.1925 13.6875 0.9375 13.4325 0.9375 13.125C0.9375 12.8175 1.1925 12.5625 1.5 12.5625H3.75C4.0575 12.5625 4.3125 12.8175 4.3125 13.125C4.3125 13.4325 4.0575 13.6875 3.75 13.6875Z" fill="white"/>
<path d="M16.5 5.4375H14.25C13.9425 5.4375 13.6875 5.1825 13.6875 4.875C13.6875 4.5675 13.9425 4.3125 14.25 4.3125H16.5C16.8075 4.3125 17.0625 4.5675 17.0625 4.875C17.0625 5.1825 16.8075 5.4375 16.5 5.4375Z" fill="white"/>
<path d="M6.75 5.4375H1.5C1.1925 5.4375 0.9375 5.1825 0.9375 4.875C0.9375 4.5675 1.1925 4.3125 1.5 4.3125H6.75C7.0575 4.3125 7.3125 4.5675 7.3125 4.875C7.3125 5.1825 7.0575 5.4375 6.75 5.4375Z" fill="white"/>
<path d="M9.75 15.9375H5.25C3.96 15.9375 3.1875 15.165 3.1875 13.875V12.375C3.1875 11.085 3.96 10.3125 5.25 10.3125H9.75C11.04 10.3125 11.8125 11.085 11.8125 12.375V13.875C11.8125 15.165 11.04 15.9375 9.75 15.9375ZM5.25 11.4375C4.5825 11.4375 4.3125 11.7075 4.3125 12.375V13.875C4.3125 14.5425 4.5825 14.8125 5.25 14.8125H9.75C10.4175 14.8125 10.6875 14.5425 10.6875 13.875V12.375C10.6875 11.7075 10.4175 11.4375 9.75 11.4375H5.25Z" fill="white"/>
<path d="M12.75 7.6875H8.25C6.96 7.6875 6.1875 6.915 6.1875 5.625V4.125C6.1875 2.835 6.96 2.0625 8.25 2.0625H12.75C14.04 2.0625 14.8125 2.835 14.8125 4.125V5.625C14.8125 6.915 14.04 7.6875 12.75 7.6875ZM8.25 3.1875C7.5825 3.1875 7.3125 3.4575 7.3125 4.125V5.625C7.3125 6.2925 7.5825 6.5625 8.25 6.5625H12.75C13.4175 6.5625 13.6875 6.2925 13.6875 5.625V4.125C13.6875 3.4575 13.4175 3.1875 12.75 3.1875H8.25Z" fill="white"/>
</svg>
