<svg width="10" height="13" viewBox="0 0 10 13" fill="none" xmlns="http://www.w3.org/2000/svg">
<path d="M6.29894 12.5109H1.74521C0.782245 12.5109 0 11.7285 0 10.7657V4.32626C0 3.3633 0.782388 2.58105 1.74521 2.58105H6.29894C7.2619 2.58105 8.04415 3.36344 8.04415 4.32626V10.7657C8.04415 11.7286 7.26176 12.5109 6.29894 12.5109ZM1.74521 3.58397C1.33391 3.58397 1.00303 3.91499 1.00303 4.32615V10.7656C1.00303 11.1769 1.33405 11.5077 1.74521 11.5077H6.29894C6.71024 11.5077 7.04112 11.1767 7.04112 10.7656V4.32615C7.04112 3.91485 6.71009 3.58397 6.29894 3.58397H1.74521Z" fill="white"/>
<path d="M9.4985 9.89377C9.21763 9.89377 8.99699 9.67313 8.99699 9.39226V3.48444C8.99699 2.44136 8.1545 1.59873 7.11127 1.59873H3.09917C2.8183 1.59873 2.59766 1.37809 2.59766 1.09722C2.59766 0.816346 2.8183 0.595703 3.09917 0.595703H7.11127C8.70602 0.595703 9.99998 1.88955 9.99998 3.48442V9.39223C9.99998 9.66303 9.77934 9.89374 9.49847 9.89374L9.4985 9.89377Z" fill="white"/>
</svg>
