<svg width="17" height="17" viewBox="0 0 17 17" fill="none" xmlns="http://www.w3.org/2000/svg">
<path d="M10.625 16.1147H6.37496C2.52871 16.1147 0.885376 14.4713 0.885376 10.6251V6.37508C0.885376 2.52883 2.52871 0.885498 6.37496 0.885498H10.625C14.4712 0.885498 16.1145 2.52883 16.1145 6.37508V10.6251C16.1145 14.4713 14.4712 16.1147 10.625 16.1147ZM6.37496 1.948C3.10954 1.948 1.94788 3.10966 1.94788 6.37508V10.6251C1.94788 13.8905 3.10954 15.0522 6.37496 15.0522H10.625C13.8904 15.0522 15.052 13.8905 15.052 10.6251V6.37508C15.052 3.10966 13.8904 1.948 10.625 1.948H6.37496Z" fill="white" fill-opacity="0.4"/>
<path d="M8.50004 11.5103C6.84254 11.5103 5.48962 10.1574 5.48962 8.49992C5.48962 6.84242 6.84254 5.4895 8.50004 5.4895C10.1575 5.4895 11.5105 6.84242 11.5105 8.49992C11.5105 10.1574 10.1575 11.5103 8.50004 11.5103ZM8.50004 6.552C7.42337 6.552 6.55212 7.42325 6.55212 8.49992C6.55212 9.57659 7.42337 10.4478 8.50004 10.4478C9.57671 10.4478 10.448 9.57659 10.448 8.49992C10.448 7.42325 9.57671 6.552 8.50004 6.552Z" fill="white" fill-opacity="0.4"/>
<path d="M12.0417 5.31255C11.9496 5.31255 11.8575 5.2913 11.7725 5.25589C11.6875 5.22047 11.6096 5.17089 11.5388 5.10714C11.475 5.0363 11.4184 4.95839 11.383 4.87339C11.3475 4.78839 11.3334 4.6963 11.3334 4.60422C11.3334 4.51214 11.3475 4.42005 11.383 4.33505C11.4255 4.24297 11.475 4.17214 11.5388 4.1013C11.5742 4.07297 11.6096 4.03755 11.645 4.0163C11.6875 3.98797 11.73 3.96672 11.7725 3.95255C11.815 3.9313 11.8575 3.91714 11.9071 3.91005C12.1338 3.86047 12.3746 3.93839 12.5446 4.1013C12.6084 4.17214 12.658 4.24297 12.6934 4.33505C12.7288 4.42005 12.75 4.51214 12.75 4.60422C12.75 4.6963 12.7288 4.78839 12.6934 4.87339C12.658 4.95839 12.6084 5.0363 12.5446 5.10714C12.4738 5.17089 12.3959 5.22047 12.3109 5.25589C12.2259 5.2913 12.1338 5.31255 12.0417 5.31255Z" fill="white" fill-opacity="0.4"/>
</svg>
