<svg width="26" height="18" viewBox="0 0 26 18" fill="none" xmlns="http://www.w3.org/2000/svg">
<path d="M16.5144 1.85254H9.48438V15.4701H16.5144V1.85254Z" fill="#FF5F00"/>
<path d="M9.93135 8.66137C9.93135 5.89455 11.1365 3.44049 12.9889 1.85257C11.6275 0.697722 9.90903 0 8.03435 0C3.59314 0 0 3.87356 0 8.66137C0 13.4492 3.59314 17.3227 8.03435 17.3227C9.90903 17.3227 11.6275 16.625 12.9889 15.4702C11.1365 13.9063 9.93135 11.4282 9.93135 8.66137Z" fill="#EB001B"/>
<path d="M26.0006 8.66137C26.0006 13.4492 22.4074 17.3227 17.9662 17.3227C16.0916 17.3227 14.3731 16.625 13.0117 15.4702C14.8864 13.8823 16.0692 11.4282 16.0692 8.66137C16.0692 5.89455 14.8641 3.44049 13.0117 1.85257C14.3731 0.697722 16.0916 0 17.9662 0C22.4074 0 26.0006 3.89762 26.0006 8.66137Z" fill="#F79E1B"/>
</svg>
