<svg width="41" height="14" viewBox="0 0 41 14" fill="none" xmlns="http://www.w3.org/2000/svg">
<path d="M29.5781 6.03857V13.1573H33.1141V8.93881H37.1216C38.8071 8.92563 40.2392 7.71939 40.7814 6.03857H29.5781Z" fill="white"/>
<path d="M29.1074 0.171875C29.3137 3.0787 31.7771 5.37912 34.7827 5.37912C34.7945 5.37912 40.9295 5.37912 40.9295 5.37912C40.9766 5.11546 41.0002 4.83862 41.0002 4.55519C41.0002 2.14272 39.2617 0.191649 37.1106 0.171875H29.1074Z" fill="white"/>
<path d="M23.8736 5.30661V5.30002V5.30661C23.9148 5.22752 23.9797 5.18138 24.0622 5.18138C24.18 5.18138 24.2684 5.28684 24.2743 5.41208V13.0911H27.8103V0.171875H24.2743C23.8264 0.191649 23.3196 0.554179 23.131 1.00899L20.3199 7.75864C20.314 7.785 20.3022 7.81137 20.2904 7.83773C20.2492 7.90365 20.1785 7.94979 20.096 7.94979C19.9663 7.94979 19.8602 7.83114 19.8602 7.68613V0.171875H16.3242V13.0911H19.8602C20.3022 13.0648 20.7973 12.7022 20.9859 12.254L23.8736 5.32639C23.8677 5.3198 23.8736 5.31321 23.8736 5.30661Z" fill="white"/>
<path d="M10.6729 5.53097L8.60429 13.0914H6.05836L3.99569 5.52438C3.97801 5.40573 3.88372 5.31345 3.76585 5.31345C3.63619 5.31345 3.53601 5.4321 3.53601 5.57052V13.0848H0V0.165527H3.03507H3.93676C4.58502 0.165527 5.26865 0.732393 5.45724 1.42449L7.1781 7.71933C7.2665 8.03572 7.40204 8.02913 7.49044 7.71933L9.2113 1.42449C9.39989 0.725801 10.0835 0.165527 10.7318 0.165527H11.6335H14.6685V13.0848H11.1325V5.57052C11.1325 5.57052 11.1325 5.57052 11.1325 5.56393C11.1325 5.41891 11.0265 5.30686 10.9027 5.30686C10.7848 5.31345 10.6905 5.40573 10.6729 5.53097Z" fill="white"/>
</svg>
