<svg width="22" height="22" viewBox="0 0 22 22" fill="none" xmlns="http://www.w3.org/2000/svg">
<path d="M16.45 21.75C15.32 21.75 14.13 21.48 12.9 20.96C11.7 20.45 10.49 19.75 9.31 18.9C8.14 18.04 7.01 17.08 5.94 16.03C4.88 14.96 3.92 13.83 3.07 12.67C2.21 11.47 1.52 10.27 1.03 9.11C0.51 7.87 0.25 6.67 0.25 5.54C0.25 4.76 0.39 4.02 0.66 3.33C0.94 2.62 1.39 1.96 2 1.39C2.77 0.63 3.65 0.25 4.59 0.25C4.98 0.25 5.38 0.34 5.72 0.5C6.11 0.68 6.44 0.95 6.68 1.31L9 4.58C9.21 4.87 9.37 5.15 9.48 5.43C9.61 5.73 9.68 6.03 9.68 6.32C9.68 6.7 9.57 7.07 9.36 7.42C9.21 7.69 8.98 7.98 8.69 8.27L8.01 8.98C8.02 9.01 8.03 9.03 8.04 9.05C8.16 9.26 8.4 9.62 8.86 10.16C9.35 10.72 9.81 11.23 10.27 11.7C10.86 12.28 11.35 12.74 11.81 13.12C12.38 13.6 12.75 13.84 12.97 13.95L12.95 14L13.68 13.28C13.99 12.97 14.29 12.74 14.58 12.59C15.13 12.25 15.83 12.19 16.53 12.48C16.79 12.59 17.07 12.74 17.37 12.95L20.69 15.31C21.06 15.56 21.33 15.88 21.49 16.26C21.64 16.64 21.71 16.99 21.71 17.34C21.71 17.82 21.6 18.3 21.39 18.75C21.18 19.2 20.92 19.59 20.59 19.95C20.02 20.58 19.4 21.03 18.68 21.32C17.99 21.6 17.24 21.75 16.45 21.75ZM4.59 1.75C4.04 1.75 3.53 1.99 3.04 2.47C2.58 2.9 2.26 3.37 2.06 3.88C1.85 4.4 1.75 4.95 1.75 5.54C1.75 6.47 1.97 7.48 2.41 8.52C2.86 9.58 3.49 10.68 4.29 11.78C5.09 12.88 6 13.95 7 14.96C8 15.95 9.08 16.87 10.19 17.68C11.27 18.47 12.38 19.11 13.48 19.57C15.19 20.3 16.79 20.47 18.11 19.92C18.62 19.71 19.07 19.39 19.48 18.93C19.71 18.68 19.89 18.41 20.04 18.09C20.16 17.84 20.22 17.58 20.22 17.32C20.22 17.16 20.19 17 20.11 16.82C20.08 16.76 20.02 16.65 19.83 16.52L16.51 14.16C16.31 14.02 16.13 13.92 15.96 13.85C15.74 13.76 15.65 13.67 15.31 13.88C15.11 13.98 14.93 14.13 14.73 14.33L13.97 15.08C13.58 15.46 12.98 15.55 12.52 15.38L12.25 15.26C11.84 15.04 11.36 14.7 10.83 14.25C10.35 13.84 9.83 13.36 9.2 12.74C8.71 12.24 8.22 11.71 7.71 11.12C7.24 10.57 6.9 10.1 6.69 9.71L6.57 9.41C6.51 9.18 6.49 9.05 6.49 8.91C6.49 8.55 6.62 8.23 6.87 7.98L7.62 7.2C7.82 7 7.97 6.81 8.07 6.64C8.15 6.51 8.18 6.4 8.18 6.3C8.18 6.22 8.15 6.1 8.1 5.98C8.03 5.82 7.92 5.64 7.78 5.45L5.46 2.17C5.36 2.03 5.24 1.93 5.09 1.86C4.93 1.79 4.76 1.75 4.59 1.75ZM12.95 14.01L12.79 14.69L13.06 13.99C13.01 13.98 12.97 13.99 12.95 14.01Z" fill="#2F53FF"/>
</svg>
