<svg width="25" height="24" viewBox="0 0 25 24" fill="none" xmlns="http://www.w3.org/2000/svg">
<path fill-rule="evenodd" clip-rule="evenodd" d="M24.9548 2.23801L20.9474 22.0071C20.5845 23.797 18.9473 24.5167 17.7867 23.604C16.8365 22.8568 14.8601 21.3812 10.9823 18.7319C10.211 18.205 9.93475 16.8318 10.5966 15.9027L12.5277 13.1915L9.36083 15.397C8.33886 16.1088 7.07519 16.5234 5.77055 16.1772C3.99994 15.7074 2.33747 14.8647 1.83565 14.5996C0.572367 13.9321 0.744455 11.8058 1.84544 11.2338L23.1066 0.188289C24.1513 -0.354413 25.2365 0.848443 24.9548 2.23801ZM2.36213 12.8403C2.30629 12.8693 2.30417 12.9676 2.35989 12.997C2.83697 13.2491 4.4057 14.0421 6.04969 14.4782C6.95877 14.7196 7.89023 14.4422 8.70461 13.875L17.9141 7.46125C18.1166 7.32019 18.3193 7.64675 18.1643 7.86434L11.6089 17.0674C11.5791 17.1092 11.5899 17.1766 11.6289 17.2033C15.5197 19.8615 17.5224 21.3554 18.5051 22.1281C18.9211 22.4552 19.503 22.1761 19.625 21.5741L23.6324 1.80501C23.6338 1.79811 23.6284 1.79218 23.6233 1.79484L2.36213 12.8403Z" fill="#2F53FF"/>
</svg>
