<svg width="54" height="15" viewBox="0 0 54 15" fill="none" xmlns="http://www.w3.org/2000/svg">
<path fill-rule="evenodd" clip-rule="evenodd" d="M53.9558 4.29347C52.3603 4.08305 50.7415 4.28871 49.2344 4.89329V13.9153H51.4487V6.33779C52.2113 6.20492 51.8747 5.96955 53.5526 6.28464L53.9558 4.29347Z" fill="white"/>
<path fill-rule="evenodd" clip-rule="evenodd" d="M48.1131 6.75336C41.4368 -3.33349 35.0481 18.0304 48.185 13.4406L47.5468 11.643C46.3038 12.3511 43.0375 12.9243 42.6851 10.1625L48.3305 9.33107C48.4156 8.46472 48.3417 7.5887 48.1131 6.75336ZM42.5344 8.65153C42.2275 6.11748 45.9391 4.31232 46.2161 8.10296L42.5344 8.65153Z" fill="white"/>
<path d="M39.6153 0.0825195H37.4062V13.9145H39.6153V0.0825195Z" fill="white"/>
<path d="M36.0268 0.0825195H33.8125V13.9145H36.0268V0.0825195Z" fill="white"/>
<path fill-rule="evenodd" clip-rule="evenodd" d="M32.6694 6.7526C25.9492 -3.33426 19.6394 18.0486 32.7377 13.4398L32.1048 11.6423C30.8583 12.3484 27.5938 12.9254 27.2379 10.1617L32.8832 9.33031C32.9687 8.4642 32.896 7.58834 32.6694 6.7526ZM27.0923 8.65076C26.7873 6.11102 30.4866 4.31345 30.7741 8.10219L27.0923 8.65076Z" fill="white"/>
<path fill-rule="evenodd" clip-rule="evenodd" d="M24.7679 13.7934V11.8003C22.3222 13.1689 23.2917 7.39656 23.1234 6.2121H24.7679V4.41454H23.1234V1.61475L20.9441 2.29998V4.41454H19.8203V6.2121H20.9441C21.2001 9.60982 19.631 15.3708 24.7679 13.7934Z" fill="white"/>
<path d="M19.1427 4.41553H16.9336V13.9158H19.1427V4.41553Z" fill="white"/>
<path fill-rule="evenodd" clip-rule="evenodd" d="M19.3081 1.59497C19.4361 -0.071624 16.0822 -0.255748 16.9448 2.25173C17.327 3.06225 19.1696 3.30521 19.3081 1.59497Z" fill="white"/>
<path fill-rule="evenodd" clip-rule="evenodd" d="M15.7231 13.915C15.7721 6.51211 16.7627 2.44814 8.41211 4.89297V13.915H10.6282V6.35266C14.9341 4.47918 13.1563 11.7795 13.493 13.915H15.7231Z" fill="white"/>
<path fill-rule="evenodd" clip-rule="evenodd" d="M7.23383 13.4496V4.41433H5.02127V11.9311C0.813528 13.7875 2.60357 6.47384 2.25643 4.40674H0.0421097C0.0912 11.5097 -1.17989 15.9628 7.23383 13.4496Z" fill="white"/>
</svg>
