<svg width="14" height="14" viewBox="0 0 14 14" fill="none" xmlns="http://www.w3.org/2000/svg">
<path d="M4.19274 13.8952C3.62211 13.8952 3.08771 13.7593 2.61672 13.4876C1.50263 12.8445 0.886719 11.5492 0.886719 9.84642V5.00061C0.886719 3.29778 1.50263 2.00254 2.61672 1.35945C3.7308 0.716365 5.15284 0.834114 6.63829 1.68553L10.832 4.1039C12.3083 4.95532 13.1235 6.1328 13.1235 7.41898C13.1235 8.70516 12.3083 9.88265 10.832 10.7341L6.63829 13.1524C5.78688 13.6506 4.95358 13.8952 4.19274 13.8952ZM4.19274 2.3105C3.85761 2.3105 3.54965 2.38296 3.28698 2.53694C2.61672 2.92642 2.24536 3.79595 2.24536 5.00061V9.83736C2.24536 11.033 2.61672 11.9115 3.29604 12.301C3.97536 12.6905 4.91735 12.5728 5.95897 11.975L10.1526 9.55657C11.1943 8.95877 11.7649 8.19794 11.7649 7.41898C11.7649 6.64003 11.1943 5.87919 10.1526 5.28139L5.95897 2.86301C5.31588 2.49165 4.71808 2.3105 4.19274 2.3105Z" fill="white" fill-opacity="0.4"/>
</svg>
