<svg width="41" height="14" viewBox="0 0 41 14" fill="none" xmlns="http://www.w3.org/2000/svg">
<path d="M14.4824 13.0092L16.5559 0.422835H19.8725L17.7974 13.0092H14.4824ZM29.7801 0.69416C29.1231 0.439166 28.0934 0.165527 26.8076 0.165527C23.5303 0.165527 21.2219 1.87262 21.2021 4.31923C21.1837 6.12778 22.8503 7.13676 24.1083 7.73875C25.3994 8.35585 25.8333 8.74921 25.8271 9.30003C25.8188 10.1438 24.7961 10.529 23.8427 10.529C22.5154 10.529 21.8101 10.3383 20.7209 9.86852L20.2933 9.6685L19.828 12.486C20.6026 12.8375 22.0351 13.1418 23.5225 13.1576C27.0089 13.1576 29.2722 11.47 29.298 8.85723C29.3103 7.42538 28.4268 6.3359 26.5132 5.43751C25.354 4.85526 24.644 4.46672 24.6515 3.87714C24.6515 3.35397 25.2525 2.79454 26.5511 2.79454C27.6355 2.77712 28.4213 3.02176 29.0334 3.27676L29.3306 3.422L29.7801 0.69416ZM38.315 0.422642H35.7522C34.9583 0.422642 34.3641 0.646774 34.0155 1.46641L29.0898 13.0009H32.5726C32.5726 13.0009 33.1419 11.45 33.2707 11.1095C33.6513 11.1095 37.0347 11.1149 37.5183 11.1149C37.6175 11.5556 37.9218 13.0009 37.9218 13.0009H40.9994L38.315 0.422256V0.422642ZM34.2488 8.55016C34.5232 7.82497 35.5703 5.03168 35.5703 5.03168C35.5508 5.06518 35.8426 4.30296 36.01 3.8304L36.2341 4.91557C36.2341 4.91557 36.8692 7.92 37.002 8.54996H34.2488V8.55016ZM11.6668 0.422642L8.41973 9.00601L8.07382 7.26175C7.46927 5.25099 5.58595 3.07249 3.48047 1.98186L6.44957 12.9891L9.9587 12.9851L15.1802 0.422513L11.6668 0.42245" fill="white"/>
<path d="M5.39053 0.422852H0.0423919L0 0.684724C4.16079 1.72656 6.91383 4.24428 8.05692 7.2698L6.89401 1.48584C6.6933 0.688839 6.111 0.450948 5.39065 0.423172" fill="#F2AE14"/>
</svg>
