<svg width="14" height="14" viewBox="0 0 14 14" fill="none" xmlns="http://www.w3.org/2000/svg">
<path d="M0 7C0 3.13401 3.13401 0 7 0C10.866 0 14 3.13401 14 7C14 10.866 10.866 14 7 14C3.13401 14 0 10.866 0 7Z" fill="#171A1E"/>
<path d="M0.5 7C0.5 3.41015 3.41015 0.5 7 0.5C10.5899 0.5 13.5 3.41015 13.5 7C13.5 10.5899 10.5899 13.5 7 13.5C3.41015 13.5 0.5 10.5899 0.5 7Z" stroke="white" stroke-opacity="0.12"/>
<path fill-rule="evenodd" clip-rule="evenodd" d="M7.56578 7.00025L9.6829 4.88308C9.83929 4.72669 9.83929 4.47389 9.6829 4.31749C9.5265 4.1611 9.27371 4.1611 9.11732 4.31749L7.0002 6.43466L4.88307 4.31749C4.72668 4.1611 4.47389 4.1611 4.31749 4.31749C4.1611 4.47389 4.1611 4.72669 4.31749 4.88308L6.43462 7.00025L4.31749 9.11741C4.1611 9.2738 4.1611 9.5266 4.31749 9.683C4.39549 9.761 4.49788 9.8002 4.60028 9.8002C4.70268 9.8002 4.80507 9.761 4.88307 9.683L7.0002 7.56584L9.11732 9.683C9.19532 9.761 9.29771 9.8002 9.40011 9.8002C9.50251 9.8002 9.6049 9.761 9.6829 9.683C9.83929 9.5266 9.83929 9.2738 9.6829 9.11741L7.56578 7.00025Z" fill="white" fill-opacity="0.12"/>
</svg>
