<svg width="20" height="20" viewBox="0 0 20 20" fill="none" xmlns="http://www.w3.org/2000/svg">
<path d="M13.9165 16.4417H6.0832C5.46653 16.4417 4.84153 16 4.6332 15.425L1.1832 5.76669C0.758198 4.55002 1.06653 3.99169 1.39986 3.74169C1.7332 3.49169 2.3582 3.34169 3.4082 4.09169L6.6582 6.41669C6.7582 6.47502 6.84986 6.50002 6.91653 6.48336C6.99153 6.45836 7.04986 6.39169 7.09153 6.27502L8.5582 2.36669C8.99986 1.20002 9.64986 1.02502 9.99986 1.02502C10.3499 1.02502 10.9999 1.20002 11.4415 2.36669L12.9082 6.27502C12.9499 6.38336 13.0082 6.45836 13.0832 6.48336C13.1582 6.50836 13.2499 6.48336 13.3415 6.40836L16.3915 4.23336C17.5082 3.43336 18.1582 3.59169 18.5165 3.85002C18.8665 4.11669 19.1915 4.70836 18.7332 6.00002L15.3665 15.425C15.1582 16 14.5332 16.4417 13.9165 16.4417ZM2.2332 4.84169C2.24986 4.95836 2.2832 5.12502 2.36653 5.34169L5.81653 15C5.84986 15.0834 5.99986 15.1917 6.0832 15.1917H13.9165C14.0082 15.1917 14.1582 15.0834 14.1832 15L17.5499 5.58336C17.6665 5.26669 17.6999 5.05002 17.7082 4.92502C17.5832 4.96669 17.3915 5.05836 17.1165 5.25836L14.0665 7.43336C13.6499 7.72502 13.1582 7.81669 12.7165 7.68336C12.2749 7.55002 11.9165 7.20002 11.7332 6.72502L10.2665 2.81669C10.1582 2.52502 10.0582 2.38336 9.99986 2.31669C9.94153 2.38336 9.84153 2.52502 9.7332 2.80836L8.26653 6.71669C8.09153 7.19169 7.7332 7.54169 7.2832 7.67502C6.84153 7.80836 6.34153 7.71669 5.9332 7.42502L2.6832 5.10002C2.49153 4.96669 2.34153 4.88336 2.2332 4.84169Z" fill="white"/>
<path d="M14.5832 18.9583H5.4165C5.07484 18.9583 4.7915 18.675 4.7915 18.3333C4.7915 17.9916 5.07484 17.7083 5.4165 17.7083H14.5832C14.9248 17.7083 15.2082 17.9916 15.2082 18.3333C15.2082 18.675 14.9248 18.9583 14.5832 18.9583Z" fill="white"/>
<path d="M12.0832 12.2917H7.9165C7.57484 12.2917 7.2915 12.0084 7.2915 11.6667C7.2915 11.325 7.57484 11.0417 7.9165 11.0417H12.0832C12.4248 11.0417 12.7082 11.325 12.7082 11.6667C12.7082 12.0084 12.4248 12.2917 12.0832 12.2917Z" fill="white"/>
</svg>
