<svg width="20" height="20" viewBox="0 0 20 20" fill="none" xmlns="http://www.w3.org/2000/svg">
<path d="M16.6752 16.0499C16.5168 16.0499 16.3585 15.9916 16.2335 15.8666L12.1085 11.7416C11.8668 11.4999 11.8668 11.0999 12.1085 10.8583C12.3502 10.6166 12.7502 10.6166 12.9918 10.8583L17.1168 14.9833C17.3585 15.2249 17.3585 15.6249 17.1168 15.8666C16.9918 15.9916 16.8335 16.0499 16.6752 16.0499Z" fill="white"/>
<path d="M8.4252 15.3583C7.81687 15.3583 7.23353 15.1166 6.80853 14.6833L3.2752 11.15C2.38353 10.2583 2.38353 8.79996 3.2752 7.9083L9.16687 2.01665C10.0585 1.12498 11.5169 1.12498 12.4085 2.01665L15.9419 5.54998C16.3752 5.98331 16.6169 6.55831 16.6169 7.16664C16.6169 7.77498 16.3752 8.35831 15.9419 8.78331L10.0502 14.675C9.61687 15.125 9.04187 15.3583 8.4252 15.3583ZM10.7835 2.59997C10.5169 2.59997 10.2502 2.69996 10.0502 2.9083L4.15854 8.79997C3.75021 9.2083 3.75021 9.86663 4.15854 10.275L7.69186 13.8083C8.08353 14.2 8.76687 14.2 9.16687 13.8083L15.0585 7.91664C15.2585 7.71664 15.3669 7.4583 15.3669 7.1833C15.3669 6.9083 15.2585 6.64163 15.0585 6.44996L11.5252 2.91664C11.3169 2.69997 11.0502 2.59997 10.7835 2.59997Z" fill="white"/>
<path d="M6.6665 18.125H1.6665C1.32484 18.125 1.0415 17.8417 1.0415 17.5C1.0415 17.1583 1.32484 16.875 1.6665 16.875H6.6665C7.00817 16.875 7.2915 17.1583 7.2915 17.5C7.2915 17.8417 7.00817 18.125 6.6665 18.125Z" fill="white"/>
<path d="M11.3583 13.1166C11.2 13.1166 11.0417 13.0583 10.9167 12.9333L5.025 7.04163C4.78333 6.79997 4.78333 6.39997 5.025 6.1583C5.26667 5.91663 5.66666 5.91663 5.90833 6.1583L11.8 12.0499C12.0417 12.2916 12.0417 12.6916 11.8 12.9333C11.6833 13.0583 11.5167 13.1166 11.3583 13.1166Z" fill="white"/>
</svg>
