<svg width="20" height="20" viewBox="0 0 20 20" fill="none" xmlns="http://www.w3.org/2000/svg">
<path d="M8.32515 18.9583C8.15848 18.9583 8.02515 18.9249 7.92515 18.8833C7.59181 18.7583 7.02515 18.3499 7.02515 17.0583V11.6833H5.07515C3.95848 11.6833 3.55848 11.1583 3.41681 10.8499C3.27515 10.5333 3.15015 9.89161 3.88348 9.04994L10.1918 1.88328C11.0418 0.916611 11.7335 0.983278 12.0668 1.10828C12.4001 1.23328 12.9668 1.64161 12.9668 2.93328V8.30828H14.9168C16.0335 8.30828 16.4335 8.83328 16.5751 9.14161C16.7168 9.45828 16.8418 10.0999 16.1085 10.9416L9.80015 18.1083C9.20848 18.7833 8.69181 18.9583 8.32515 18.9583ZM11.6085 2.28328C11.5835 2.31661 11.4085 2.39994 11.1335 2.71661L4.82515 9.88328C4.59181 10.1499 4.55848 10.3166 4.55848 10.3499C4.57515 10.3583 4.72515 10.4416 5.07515 10.4416H7.65015C7.99181 10.4416 8.27515 10.7249 8.27515 11.0666V17.0666C8.27515 17.4833 8.35015 17.6666 8.38348 17.7166C8.40848 17.6833 8.58348 17.5999 8.85848 17.2833L15.1668 10.1166C15.4001 9.84995 15.4335 9.68328 15.4335 9.64994C15.4168 9.64161 15.2668 9.55828 14.9168 9.55828H12.3418C12.0001 9.55828 11.7168 9.27494 11.7168 8.93328V2.93328C11.7251 2.51661 11.6418 2.34161 11.6085 2.28328Z" fill="white"/>
</svg>
