<svg width="14" height="15" viewBox="0 0 14 15" fill="none" xmlns="http://www.w3.org/2000/svg">
<path d="M0 14.2639C0 14.4591 0.0775431 14.6463 0.215553 14.7844C0.35369 14.9225 0.540871 15 0.736145 15H8.25811C8.45338 15 8.6407 14.9225 8.77871 14.7844C8.91684 14.6463 8.99439 14.4591 8.99439 14.2639V11.6725C8.99439 11.4094 8.85407 11.1664 8.62619 11.0349C8.39844 10.9033 8.11779 10.9033 7.89007 11.0349C7.66232 11.1664 7.522 11.4094 7.522 11.6725V13.5276H1.47242V1.47243H7.522V3.32754C7.522 3.59059 7.66232 3.8336 7.89007 3.96507C8.11782 4.09666 8.39847 4.09666 8.62619 3.96507C8.85407 3.8336 8.99439 3.59056 8.99439 3.32754V0.736145C8.99439 0.540877 8.91684 0.353687 8.77871 0.215553C8.6407 0.0775433 8.45339 0 8.25811 0H0.736145C0.540877 0 0.353687 0.0775433 0.215553 0.215553C0.0775431 0.353691 0 0.54087 0 0.736145V14.2639Z" fill="#D9D9D9"/>
<path d="M13.1602 6.99583L10.624 4.30137C10.4439 4.10969 10.175 4.02868 9.91905 4.0889C9.66293 4.14911 9.45841 4.3413 9.38255 4.59319C9.30668 4.84507 9.37087 5.11828 9.55099 5.30996L10.913 6.764H4.35331C4.09039 6.764 3.84735 6.90432 3.71578 7.13206C3.58432 7.35981 3.58432 7.64046 3.71578 7.86819C3.84738 8.09594 4.09039 8.23625 4.35331 8.23625H10.913L9.55099 9.69029C9.37087 9.88197 9.30668 10.1552 9.38255 10.4071C9.45843 10.6589 9.66293 10.8511 9.91905 10.9114C10.175 10.9716 10.4439 10.8906 10.624 10.6989L13.1602 8.00442C13.2885 7.86795 13.3601 7.68758 13.3601 7.50013C13.3601 7.31269 13.2885 7.13233 13.1602 6.99584V6.99583Z" fill="#D9D9D9"/>
</svg>
