<svg width="20" height="20" viewBox="0 0 20 20" fill="none" xmlns="http://www.w3.org/2000/svg">
<path d="M14.1668 17.2916H5.83343C2.29176 17.2916 1.13343 16.2333 1.0501 12.9333C1.0501 12.7666 1.10843 12.5999 1.2251 12.4833C1.34176 12.3666 1.5001 12.2916 1.6751 12.2916C2.93343 12.2916 3.95843 11.2583 3.95843 9.99992C3.95843 8.74159 2.93343 7.70825 1.6751 7.70825C1.50843 7.70825 1.3501 7.64159 1.2251 7.51659C1.1001 7.39159 1.04176 7.23325 1.0501 7.06658C1.13343 3.76658 2.29176 2.70825 5.83343 2.70825H14.1668C17.8418 2.70825 18.9584 3.82492 18.9584 7.49992V12.4999C18.9584 16.1749 17.8418 17.2916 14.1668 17.2916ZM2.3251 13.4833C2.46676 15.5999 3.18343 16.0416 5.83343 16.0416H14.1668C17.1501 16.0416 17.7084 15.4749 17.7084 12.4999V7.49992C17.7084 4.52492 17.1501 3.95825 14.1668 3.95825H5.83343C3.18343 3.95825 2.46676 4.40825 2.3251 6.51659C3.96676 6.83325 5.20843 8.27492 5.20843 9.99992C5.20843 11.7249 3.96676 13.1666 2.3251 13.4833Z" fill="white"/>
<path d="M7.5 6.87492C7.15833 6.87492 6.875 6.59159 6.875 6.24992V3.33325C6.875 2.99159 7.15833 2.70825 7.5 2.70825C7.84167 2.70825 8.125 2.99159 8.125 3.33325V6.24992C8.125 6.59159 7.84167 6.87492 7.5 6.87492Z" fill="white"/>
<path d="M7.5 17.2917C7.15833 17.2917 6.875 17.0083 6.875 16.6667V13.75C6.875 13.4083 7.15833 13.125 7.5 13.125C7.84167 13.125 8.125 13.4083 8.125 13.75V16.6667C8.125 17.0083 7.84167 17.2917 7.5 17.2917Z" fill="white"/>
<path d="M10.8668 13.0416C10.6668 13.0416 10.4668 12.9749 10.3001 12.8583C10.0001 12.6416 9.85012 12.2749 9.91679 11.9083L10.0918 10.9166L9.36679 10.2083C9.10012 9.94992 9.00845 9.56659 9.11679 9.21659C9.23345 8.86659 9.53345 8.60825 9.90012 8.55825L10.9001 8.40825L11.3501 7.49992C11.5168 7.16658 11.8501 6.95825 12.2168 6.95825C12.5918 6.95825 12.9251 7.16658 13.0835 7.49992L13.5335 8.40825L14.5335 8.55825C14.9001 8.60825 15.2001 8.86659 15.3168 9.21659C15.4335 9.56659 15.3335 9.94992 15.0668 10.2083L14.3418 10.9166L14.5168 11.9083C14.5835 12.2749 14.4335 12.6416 14.1335 12.8583C13.8335 13.0749 13.4418 13.0999 13.1168 12.9333L12.2251 12.4666L11.3251 12.9333C11.1835 13.0083 11.0251 13.0416 10.8668 13.0416ZM10.6418 9.70825L11.0668 10.1249C11.3001 10.3499 11.4001 10.6666 11.3501 10.9833L11.2501 11.5666L11.7751 11.2916C12.0585 11.1416 12.3918 11.1416 12.6751 11.2916L13.2001 11.5666L13.1001 10.9833C13.0501 10.6583 13.1501 10.3416 13.3835 10.1249L13.8085 9.70825L13.2251 9.62492C12.9085 9.57492 12.6335 9.37492 12.4918 9.09158L12.2335 8.55825L11.9751 9.09158C11.8335 9.37492 11.5585 9.57492 11.2418 9.62492L10.6418 9.70825Z" fill="white"/>
</svg>
