<svg width="20" height="20" viewBox="0 0 20 20" fill="none" xmlns="http://www.w3.org/2000/svg">
<path d="M6.6665 4.79175C6.32484 4.79175 6.0415 4.50841 6.0415 4.16675V1.66675C6.0415 1.32508 6.32484 1.04175 6.6665 1.04175C7.00817 1.04175 7.2915 1.32508 7.2915 1.66675V4.16675C7.2915 4.50841 7.00817 4.79175 6.6665 4.79175Z" fill="white"/>
<path d="M13.3335 4.79175C12.9918 4.79175 12.7085 4.50841 12.7085 4.16675V1.66675C12.7085 1.32508 12.9918 1.04175 13.3335 1.04175C13.6752 1.04175 13.9585 1.32508 13.9585 1.66675V4.16675C13.9585 4.50841 13.6752 4.79175 13.3335 4.79175Z" fill="white"/>
<path d="M7.08333 12.0834C6.975 12.0834 6.86667 12.0584 6.76667 12.0168C6.65833 11.9751 6.575 11.9168 6.49167 11.8418C6.34167 11.6834 6.25 11.4751 6.25 11.2501C6.25 11.1418 6.275 11.0334 6.31667 10.9334C6.35833 10.8334 6.41667 10.7418 6.49167 10.6584C6.575 10.5834 6.65833 10.5251 6.76667 10.4834C7.06667 10.3584 7.44167 10.4251 7.675 10.6584C7.825 10.8168 7.91667 11.0334 7.91667 11.2501C7.91667 11.3001 7.90833 11.3584 7.9 11.4168C7.89167 11.4668 7.875 11.5168 7.85 11.5668C7.83333 11.6168 7.80833 11.6668 7.775 11.7168C7.75 11.7584 7.70833 11.8001 7.675 11.8418C7.51667 11.9918 7.3 12.0834 7.08333 12.0834Z" fill="white"/>
<path d="M9.99984 12.0832C9.8915 12.0832 9.78317 12.0582 9.68317 12.0166C9.57484 11.9749 9.4915 11.9166 9.40817 11.8416C9.25817 11.6832 9.1665 11.4749 9.1665 11.2499C9.1665 11.1416 9.19151 11.0332 9.23317 10.9332C9.27484 10.8332 9.33317 10.7416 9.40817 10.6582C9.4915 10.5832 9.57484 10.5249 9.68317 10.4832C9.98317 10.3499 10.3582 10.4249 10.5915 10.6582C10.7415 10.8166 10.8332 11.0332 10.8332 11.2499C10.8332 11.2999 10.8248 11.3582 10.8165 11.4166C10.8082 11.4666 10.7915 11.5166 10.7665 11.5666C10.7498 11.6166 10.7248 11.6666 10.6915 11.7166C10.6665 11.7582 10.6248 11.7999 10.5915 11.8416C10.4332 11.9916 10.2165 12.0832 9.99984 12.0832Z" fill="white"/>
<path d="M12.9168 12.0832C12.8085 12.0832 12.7002 12.0582 12.6002 12.0166C12.4918 11.9749 12.4085 11.9166 12.3252 11.8416C12.2918 11.7999 12.2585 11.7582 12.2252 11.7166C12.1918 11.6666 12.1668 11.6166 12.1502 11.5666C12.1252 11.5166 12.1085 11.4666 12.1002 11.4166C12.0918 11.3582 12.0835 11.2999 12.0835 11.2499C12.0835 11.0332 12.1752 10.8166 12.3252 10.6582C12.4085 10.5832 12.4918 10.5249 12.6002 10.4832C12.9085 10.3499 13.2752 10.4249 13.5085 10.6582C13.6585 10.8166 13.7502 11.0332 13.7502 11.2499C13.7502 11.2999 13.7418 11.3582 13.7335 11.4166C13.7252 11.4666 13.7085 11.5166 13.6835 11.5666C13.6668 11.6166 13.6418 11.6666 13.6085 11.7166C13.5835 11.7582 13.5418 11.7999 13.5085 11.8416C13.3502 11.9916 13.1335 12.0832 12.9168 12.0832Z" fill="white"/>
<path d="M7.08333 15C6.975 15 6.86667 14.975 6.76667 14.9333C6.66667 14.8917 6.575 14.8333 6.49167 14.7583C6.34167 14.6 6.25 14.3833 6.25 14.1667C6.25 14.0583 6.275 13.95 6.31667 13.85C6.35833 13.7417 6.41667 13.65 6.49167 13.575C6.8 13.2667 7.36667 13.2667 7.675 13.575C7.825 13.7333 7.91667 13.95 7.91667 14.1667C7.91667 14.3833 7.825 14.6 7.675 14.7583C7.51667 14.9083 7.3 15 7.08333 15Z" fill="white"/>
<path d="M9.99984 15C9.78317 15 9.5665 14.9083 9.40817 14.7583C9.25817 14.6 9.1665 14.3833 9.1665 14.1667C9.1665 14.0583 9.19151 13.95 9.23317 13.85C9.27484 13.7417 9.33317 13.65 9.40817 13.575C9.7165 13.2667 10.2832 13.2667 10.5915 13.575C10.6665 13.65 10.7248 13.7417 10.7665 13.85C10.8082 13.95 10.8332 14.0583 10.8332 14.1667C10.8332 14.3833 10.7415 14.6 10.5915 14.7583C10.4332 14.9083 10.2165 15 9.99984 15Z" fill="white"/>
<path d="M12.9168 14.9999C12.7002 14.9999 12.4835 14.9083 12.3252 14.7583C12.2502 14.6833 12.1918 14.5916 12.1502 14.4833C12.1085 14.3833 12.0835 14.2749 12.0835 14.1666C12.0835 14.0583 12.1085 13.9499 12.1502 13.8499C12.1918 13.7416 12.2502 13.6499 12.3252 13.5749C12.5168 13.3833 12.8085 13.2916 13.0752 13.3499C13.1335 13.3583 13.1835 13.3749 13.2335 13.3999C13.2835 13.4166 13.3335 13.4416 13.3835 13.4749C13.4252 13.4999 13.4668 13.5416 13.5085 13.5749C13.6585 13.7333 13.7502 13.9499 13.7502 14.1666C13.7502 14.3833 13.6585 14.5999 13.5085 14.7583C13.3502 14.9083 13.1335 14.9999 12.9168 14.9999Z" fill="white"/>
<path d="M17.0832 8.19995H2.9165C2.57484 8.19995 2.2915 7.91662 2.2915 7.57495C2.2915 7.23328 2.57484 6.94995 2.9165 6.94995H17.0832C17.4248 6.94995 17.7082 7.23328 17.7082 7.57495C17.7082 7.91662 17.4248 8.19995 17.0832 8.19995Z" fill="white"/>
<path d="M13.3333 18.9584H6.66667C3.625 18.9584 1.875 17.2084 1.875 14.1667V7.08342C1.875 4.04175 3.625 2.29175 6.66667 2.29175H13.3333C16.375 2.29175 18.125 4.04175 18.125 7.08342V14.1667C18.125 17.2084 16.375 18.9584 13.3333 18.9584ZM6.66667 3.54175C4.28333 3.54175 3.125 4.70008 3.125 7.08342V14.1667C3.125 16.5501 4.28333 17.7084 6.66667 17.7084H13.3333C15.7167 17.7084 16.875 16.5501 16.875 14.1667V7.08342C16.875 4.70008 15.7167 3.54175 13.3333 3.54175H6.66667Z" fill="white"/>
</svg>
