<svg width="20" height="20" viewBox="0 0 20 20" fill="none" xmlns="http://www.w3.org/2000/svg">
<path d="M10.0167 16.9584C7.86672 16.9584 5.72505 16.6168 3.68339 15.9334C2.92505 15.6834 2.35005 15.1418 2.10005 14.4584C1.85005 13.7751 1.93339 12.9918 2.34172 12.3084L3.40005 10.5418C3.63339 10.1501 3.84172 9.41678 3.84172 8.95845V7.20845C3.84172 3.80011 6.60839 1.03345 10.0167 1.03345C13.4251 1.03345 16.1917 3.80011 16.1917 7.20845V8.95845C16.1917 9.40845 16.4001 10.1501 16.6334 10.5418L17.6917 12.3084C18.0834 12.9584 18.1501 13.7334 17.8917 14.4418C17.6334 15.1501 17.0667 15.6918 16.3501 15.9334C14.3084 16.6251 12.1667 16.9584 10.0167 16.9584ZM10.0167 2.29178C7.30005 2.29178 5.09172 4.50011 5.09172 7.21678V8.96678C5.09172 9.64178 4.82505 10.6168 4.47505 11.1918L3.41672 12.9668C3.20005 13.3251 3.15005 13.7084 3.27505 14.0418C3.40005 14.3751 3.68339 14.6251 4.08339 14.7584C7.91672 16.0334 12.1334 16.0334 15.9667 14.7584C16.3251 14.6418 16.6001 14.3751 16.7251 14.0251C16.8584 13.6751 16.8167 13.2918 16.6251 12.9668L15.5667 11.2001C15.2167 10.6251 14.9501 9.65012 14.9501 8.97511V7.22511C14.9417 4.50011 12.7334 2.29178 10.0167 2.29178Z" fill="white"/>
<path d="M10.0001 19.0833C9.10843 19.0833 8.23343 18.7167 7.6001 18.0833C6.96676 17.45 6.6001 16.575 6.6001 15.6833H7.8501C7.8501 16.25 8.08343 16.8 8.48343 17.2C8.88343 17.6 9.43343 17.8333 10.0001 17.8333C11.1834 17.8333 12.1501 16.8667 12.1501 15.6833H13.4001C13.4001 17.5583 11.8751 19.0833 10.0001 19.0833Z" fill="white"/>
</svg>
