<svg width="20" height="20" viewBox="0 0 20 20" fill="none" xmlns="http://www.w3.org/2000/svg">
<path d="M16.4115 11.4583H13.0578C11.3892 11.4583 10.584 10.6833 10.584 9.08329V3.41663C10.584 1.81663 11.3975 1.04163 13.0578 1.04163H16.4115C18.08 1.04163 18.8853 1.81663 18.8853 3.41663V9.08329C18.8853 10.6833 18.0717 11.4583 16.4115 11.4583ZM13.0578 2.29163C12.0035 2.29163 11.8292 2.57496 11.8292 3.41663V9.08329C11.8292 9.92496 12.0035 10.2083 13.0578 10.2083H16.4115C17.4657 10.2083 17.6401 9.92496 17.6401 9.08329V3.41663C17.6401 2.57496 17.4657 2.29163 16.4115 2.29163H13.0578Z" fill="#fff"/>
<path d="M16.4115 18.9584H13.0578C11.3892 18.9584 10.584 18.1834 10.584 16.5834V15.0834C10.584 13.4834 11.3975 12.7084 13.0578 12.7084H16.4115C18.08 12.7084 18.8853 13.4834 18.8853 15.0834V16.5834C18.8853 18.1834 18.0717 18.9584 16.4115 18.9584ZM13.0578 13.9584C12.0035 13.9584 11.8292 14.2417 11.8292 15.0834V16.5834C11.8292 17.425 12.0035 17.7084 13.0578 17.7084H16.4115C17.4657 17.7084 17.6401 17.425 17.6401 16.5834V15.0834C17.6401 14.2417 17.4657 13.9584 16.4115 13.9584H13.0578Z" fill="#fff"/>
<path d="M6.8651 18.9583H3.51138C1.84282 18.9583 1.0376 18.1833 1.0376 16.5833V10.9166C1.0376 9.31663 1.85112 8.54163 3.51138 8.54163H6.8651C8.53366 8.54163 9.33888 9.31663 9.33888 10.9166V16.5833C9.33888 18.1833 8.52535 18.9583 6.8651 18.9583ZM3.51138 9.79163C2.45712 9.79163 2.28279 10.075 2.28279 10.9166V16.5833C2.28279 17.425 2.45712 17.7083 3.51138 17.7083H6.8651C7.91936 17.7083 8.09369 17.425 8.09369 16.5833V10.9166C8.09369 10.075 7.91936 9.79163 6.8651 9.79163H3.51138Z" fill="#fff"/>
<path d="M6.8651 7.29163H3.51138C1.84282 7.29163 1.0376 6.51663 1.0376 4.91663V3.41663C1.0376 1.81663 1.85112 1.04163 3.51138 1.04163H6.8651C8.53366 1.04163 9.33888 1.81663 9.33888 3.41663V4.91663C9.33888 6.51663 8.52535 7.29163 6.8651 7.29163ZM3.51138 2.29163C2.45712 2.29163 2.28279 2.57496 2.28279 3.41663V4.91663C2.28279 5.75829 2.45712 6.04163 3.51138 6.04163H6.8651C7.91936 6.04163 8.09369 5.75829 8.09369 4.91663V3.41663C8.09369 2.57496 7.91936 2.29163 6.8651 2.29163H3.51138Z" fill="#fff"/>
</svg>
