<svg width="20" height="20" viewBox="0 0 20 20" fill="none" xmlns="http://www.w3.org/2000/svg">
<path d="M12.4998 18.9584H7.49984C2.97484 18.9584 1.0415 17.0251 1.0415 12.5001V7.50008C1.0415 2.97508 2.97484 1.04175 7.49984 1.04175H12.4998C17.0248 1.04175 18.9582 2.97508 18.9582 7.50008V12.5001C18.9582 17.0251 17.0248 18.9584 12.4998 18.9584ZM7.49984 2.29175C3.65817 2.29175 2.2915 3.65841 2.2915 7.50008V12.5001C2.2915 16.3417 3.65817 17.7084 7.49984 17.7084H12.4998C16.3415 17.7084 17.7082 16.3417 17.7082 12.5001V7.50008C17.7082 3.65841 16.3415 2.29175 12.4998 2.29175H7.49984Z" fill="white"/>
<path d="M7.35003 8.12511C6.6417 8.12511 5.93337 7.85845 5.3917 7.31678C5.15003 7.07511 5.15003 6.67511 5.3917 6.43345C5.63337 6.19178 6.03337 6.19178 6.27503 6.43345C6.8667 7.02511 7.83337 7.02511 8.42503 6.43345C8.6667 6.19178 9.0667 6.19178 9.30837 6.43345C9.55003 6.67511 9.55003 7.07511 9.30837 7.31678C8.7667 7.85011 8.05837 8.12511 7.35003 8.12511Z" fill="white"/>
<path d="M12.6498 8.12511C11.9415 8.12511 11.2332 7.85845 10.6915 7.31678C10.4498 7.07511 10.4498 6.67511 10.6915 6.43345C10.9332 6.19178 11.3332 6.19178 11.5748 6.43345C12.1665 7.02511 13.1332 7.02511 13.7248 6.43345C13.9665 6.19178 14.3665 6.19178 14.6082 6.43345C14.8498 6.67511 14.8498 7.07511 14.6082 7.31678C14.0665 7.85011 13.3582 8.12511 12.6498 8.12511Z" fill="white"/>
<path d="M10 15.9583C7.58333 15.9583 5.625 13.9916 5.625 11.5833C5.625 10.8249 6.24167 10.2083 7 10.2083H13C13.7583 10.2083 14.375 10.8249 14.375 11.5833C14.375 13.9916 12.4167 15.9583 10 15.9583ZM7 11.4583C6.93333 11.4583 6.875 11.5166 6.875 11.5833C6.875 13.3083 8.275 14.7083 10 14.7083C11.725 14.7083 13.125 13.3083 13.125 11.5833C13.125 11.5166 13.0667 11.4583 13 11.4583H7Z" fill="white"/>
</svg>
