<svg width="20" height="20" viewBox="0 0 20 20" fill="none" xmlns="http://www.w3.org/2000/svg">
<path d="M12.9166 13.125C12.7666 13.125 12.6 13.1167 12.45 13.1084C12.1416 13.0917 11.8916 12.8417 11.8666 12.5334C11.6833 10.2084 9.79163 8.32503 7.47496 8.1417C7.16663 8.1167 6.91662 7.86671 6.89996 7.55838C6.89162 7.40838 6.8833 7.24172 6.8833 7.09172C6.8833 3.75838 9.59163 1.05005 12.925 1.05005C16.2583 1.05005 18.9666 3.75838 18.9666 7.09172C18.9666 10.425 16.25 13.125 12.9166 13.125ZM8.12496 6.9667C10.6083 7.40836 12.6 9.39171 13.0333 11.875C15.625 11.8084 17.7083 9.69171 17.7083 7.08337C17.7083 4.44171 15.5583 2.29171 12.9166 2.29171C10.3166 2.29171 8.19163 4.37503 8.12496 6.9667Z" fill="white"/>
<path d="M7.08317 18.9583C3.74984 18.9583 1.0415 16.25 1.0415 12.9167C1.0415 9.58333 3.74984 6.875 7.08317 6.875C7.23317 6.875 7.39984 6.88332 7.54984 6.89166C10.4915 7.12499 12.8748 9.50834 13.0998 12.4333C13.1082 12.6 13.1165 12.7667 13.1165 12.9167C13.1248 16.25 10.4165 18.9583 7.08317 18.9583ZM7.08317 8.125C4.4415 8.125 2.2915 10.275 2.2915 12.9167C2.2915 15.5583 4.4415 17.7083 7.08317 17.7083C9.72484 17.7083 11.8748 15.5583 11.8748 12.9167C11.8748 12.7833 11.8665 12.65 11.8582 12.5167C11.6748 10.2083 9.78316 8.31667 7.4665 8.13334C7.34983 8.13334 7.2165 8.125 7.08317 8.125Z" fill="white"/>
<path d="M7.08333 15.6251C6.85833 15.6251 6.64166 15.5 6.53333 15.3L5.88333 14.1167L4.70001 13.4667C4.50001 13.3584 4.375 13.1501 4.375 12.9167C4.375 12.6834 4.50001 12.475 4.70001 12.3667L5.88333 11.7167L6.53333 10.5334C6.75 10.1334 7.40834 10.1334 7.63334 10.5334L8.28334 11.7167L9.46665 12.3667C9.66665 12.475 9.79167 12.6834 9.79167 12.9167C9.79167 13.1501 9.66665 13.3584 9.46665 13.4667L8.28334 14.1167L7.63334 15.3C7.525 15.5 7.30833 15.6251 7.08333 15.6251ZM6.3 12.9167L6.64167 13.1084C6.75 13.1667 6.83332 13.2501 6.89166 13.3584L7.08333 13.7001L7.27501 13.3584C7.33334 13.2501 7.41667 13.1667 7.525 13.1084L7.86667 12.9167L7.525 12.725C7.41667 12.6667 7.33334 12.5834 7.27501 12.4751L7.08333 12.1334L6.89166 12.4751C6.83332 12.5834 6.75 12.6667 6.64167 12.725L6.3 12.9167Z" fill="white"/>
</svg>
