<svg width="20" height="20" viewBox="0 0 20 20" fill="none" xmlns="http://www.w3.org/2000/svg">
<path d="M10.125 16.125C9.78333 16.125 9.5 15.8417 9.5 15.5V13.75C9.5 13.4083 9.78333 13.125 10.125 13.125C10.4667 13.125 10.75 13.4083 10.75 13.75V15.5C10.75 15.8417 10.4667 16.125 10.125 16.125Z" fill="white"/>
<path d="M14.9168 18.9583H5.3335V17.4999C5.3335 16.2333 6.3585 15.2083 7.62516 15.2083H12.6252C13.8918 15.2083 14.9168 16.2333 14.9168 17.4999V18.9583ZM6.5835 17.7083H13.6668V17.4999C13.6668 16.9249 13.2002 16.4583 12.6252 16.4583H7.62516C7.05016 16.4583 6.5835 16.9249 6.5835 17.4999V17.7083Z" fill="white"/>
<path d="M15.125 18.9583H5.125C4.78333 18.9583 4.5 18.6749 4.5 18.3333C4.5 17.9916 4.78333 17.7083 5.125 17.7083H15.125C15.4667 17.7083 15.75 17.9916 15.75 18.3333C15.75 18.6749 15.4667 18.9583 15.125 18.9583Z" fill="white"/>
<path d="M15.3581 10.3666C15.1831 10.3666 15.0081 10.2916 14.8831 10.1499C14.7248 9.96655 14.6831 9.70822 14.7831 9.49155C15.0664 8.84155 15.2081 8.14989 15.2081 7.42489V4.92489C15.2081 4.63322 15.1581 4.34989 15.0581 4.04989C15.0498 4.02489 15.0414 3.99155 15.0331 3.95822C15.0081 3.83322 14.9998 3.70822 14.9998 3.59155C14.9998 3.24989 15.2831 2.96655 15.6248 2.96655H16.1248C17.6164 2.96655 18.8331 4.21655 18.8331 5.75822C18.8331 7.03322 18.3081 8.29155 17.3998 9.19989C17.3831 9.21655 17.3331 9.25822 17.3248 9.26655C16.8331 9.67489 16.2748 10.1332 15.5248 10.3416C15.4664 10.3582 15.4164 10.3666 15.3581 10.3666ZM16.3998 4.24155C16.4414 4.46655 16.4581 4.69989 16.4581 4.92489V7.42489C16.4581 7.76655 16.4331 8.09155 16.3831 8.42489C16.4331 8.38322 16.4748 8.34989 16.5248 8.30822C17.1914 7.64155 17.5831 6.70822 17.5831 5.75822C17.5831 5.00822 17.0748 4.37489 16.3998 4.24155Z" fill="white"/>
<path d="M4.64984 10.3333C4.58317 10.3333 4.52484 10.325 4.45817 10.3C3.77484 10.0833 3.13317 9.68333 2.59984 9.15C1.6415 8.09167 1.1665 6.93333 1.1665 5.70833C1.1665 4.19167 2.35817 3 3.87484 3H4.4165C4.62484 3 4.82484 3.10833 4.9415 3.28333C5.05817 3.45833 5.07484 3.68333 4.9915 3.875C4.85817 4.175 4.7915 4.51667 4.7915 4.875V7.375C4.7915 8.09167 4.93317 8.79167 5.22484 9.45833C5.32484 9.68333 5.27484 9.94167 5.1165 10.125C4.9915 10.2583 4.82484 10.3333 4.64984 10.3333ZM3.58317 4.275C2.90817 4.40833 2.4165 4.99167 2.4165 5.70833C2.4165 6.61667 2.78317 7.49167 3.50817 8.29167C3.5415 8.33333 3.58317 8.36667 3.62484 8.4C3.5665 8.05833 3.5415 7.71667 3.5415 7.375V4.875C3.5415 4.675 3.55817 4.475 3.58317 4.275Z" fill="white"/>
<path d="M9.99984 13.9584C6.4415 13.9584 3.5415 11.0584 3.5415 7.50008V5.00008C3.5415 2.81675 5.3165 1.04175 7.49984 1.04175H12.4998C14.6832 1.04175 16.4582 2.81675 16.4582 5.00008V7.50008C16.4582 11.0584 13.5582 13.9584 9.99984 13.9584ZM7.49984 2.29175C6.00817 2.29175 4.7915 3.50841 4.7915 5.00008V7.50008C4.7915 10.3751 7.12484 12.7084 9.99984 12.7084C12.8748 12.7084 15.2082 10.3751 15.2082 7.50008V5.00008C15.2082 3.50841 13.9915 2.29175 12.4998 2.29175H7.49984Z" fill="white"/>
</svg>
