<svg width="20" height="20" viewBox="0 0 20 20" fill="none" xmlns="http://www.w3.org/2000/svg">
<g clip-path="url(#clip0_11_49)">
<path d="M17 0.5H3C1.61929 0.5 0.5 1.61929 0.5 3V17C0.5 18.3807 1.61929 19.5 3 19.5H17C18.3807 19.5 19.5 18.3807 19.5 17V3C19.5 1.61929 18.3807 0.5 17 0.5Z" stroke="white" stroke-opacity="0.4"/>
<path d="M7.12598 5.14746V13H6.48682V5.9585L4.35986 6.74805V6.14111L7.01855 5.14746H7.12598ZM14.9517 8.41846V9.73438C14.9517 10.3073 14.8979 10.8068 14.7905 11.2329C14.6831 11.6554 14.5256 12.0063 14.3179 12.2856C14.1138 12.5614 13.8631 12.7673 13.5659 12.9033C13.2723 13.0394 12.9357 13.1074 12.5562 13.1074C12.2554 13.1074 11.9797 13.0645 11.729 12.9785C11.4784 12.8926 11.2546 12.7619 11.0576 12.5864C10.8643 12.4074 10.6995 12.1836 10.5635 11.915C10.4274 11.6465 10.3236 11.3314 10.252 10.9697C10.1803 10.6045 10.1445 10.1927 10.1445 9.73438V8.41846C10.1445 7.84196 10.1982 7.34424 10.3057 6.92529C10.4167 6.50635 10.5742 6.15902 10.7783 5.8833C10.986 5.60758 11.2384 5.40348 11.5356 5.271C11.8328 5.13493 12.1694 5.06689 12.5454 5.06689C12.8462 5.06689 13.1219 5.11165 13.3726 5.20117C13.6268 5.28711 13.8506 5.41602 14.0439 5.58789C14.2409 5.75977 14.4056 5.97998 14.5381 6.24854C14.6742 6.51351 14.7762 6.82682 14.8442 7.18848C14.9159 7.55013 14.9517 7.96012 14.9517 8.41846ZM14.3125 9.80958V8.33789C14.3125 7.9834 14.2874 7.66113 14.2373 7.37109C14.1908 7.08105 14.1209 6.82682 14.0278 6.6084C13.9347 6.38997 13.8166 6.20736 13.6733 6.06055C13.5337 5.91374 13.369 5.80452 13.1792 5.73291C12.993 5.65771 12.7817 5.62012 12.5454 5.62012C12.2554 5.62012 11.9993 5.6792 11.7773 5.79736C11.5589 5.91195 11.3763 6.08382 11.2295 6.31299C11.0827 6.53857 10.9717 6.82145 10.8965 7.16162C10.8249 7.50179 10.7891 7.89388 10.7891 8.33789V9.80958C10.7891 10.1605 10.8123 10.481 10.8589 10.771C10.9054 11.0575 10.9771 11.3117 11.0737 11.5337C11.1704 11.7557 11.2886 11.9437 11.4282 12.0977C11.5715 12.248 11.7362 12.3626 11.9224 12.4414C12.1121 12.5166 12.3234 12.5542 12.5562 12.5542C12.8534 12.5542 13.1112 12.4951 13.3296 12.377C13.548 12.2552 13.7306 12.078 13.8774 11.8452C14.0243 11.6089 14.1335 11.3206 14.2051 10.9805C14.2767 10.6367 14.3125 10.2464 14.3125 9.80958Z" fill="white" fill-opacity="0.4"/>
</g>
<defs>
<clipPath id="clip0_11_49">
<rect width="20" height="20" fill="white"/>
</clipPath>
</defs>
</svg>
