<svg width="20" height="20" viewBox="0 0 20 20" fill="none" xmlns="http://www.w3.org/2000/svg">
<g clip-path="url(#clip0_11_55)">
<path d="M17 0.5H3C1.61929 0.5 0.5 1.61929 0.5 3V17C0.5 18.3807 1.61929 19.5 3 19.5H17C18.3807 19.5 19.5 18.3807 19.5 17V3C19.5 1.61929 18.3807 0.5 17 0.5Z" stroke="white" stroke-opacity="0.4"/>
<path d="M7.12598 5.14746V13H6.48682V5.9585L4.35986 6.74805V6.14111L7.01855 5.14746H7.12598ZM15.1343 12.4468V13H10.2412V12.5005L12.8032 9.59473C13.1219 9.23307 13.3761 8.91618 13.5659 8.64404C13.7557 8.36833 13.8918 8.11768 13.9741 7.89209C14.0601 7.66292 14.103 7.44092 14.103 7.22607C14.103 6.91097 14.0404 6.63346 13.915 6.39355C13.7933 6.15365 13.6107 5.96566 13.3672 5.82959C13.1237 5.69352 12.8229 5.62549 12.4648 5.62549C12.1068 5.62549 11.7952 5.70247 11.5303 5.85645C11.2653 6.01042 11.0612 6.22526 10.918 6.50098C10.7783 6.77311 10.7085 7.08285 10.7085 7.43018H10.0693C10.0693 7.00049 10.1642 6.60661 10.354 6.24854C10.5474 5.89046 10.8231 5.60579 11.1812 5.39453C11.5392 5.17969 11.9671 5.07227 12.4648 5.07227C12.9375 5.07227 13.3439 5.15641 13.6841 5.32471C14.0243 5.48942 14.2856 5.72754 14.4683 6.03906C14.6545 6.35059 14.7476 6.72656 14.7476 7.16699C14.7476 7.40332 14.7046 7.64144 14.6187 7.88135C14.5363 8.12126 14.4217 8.36117 14.2749 8.60107C14.1317 8.8374 13.967 9.07194 13.7808 9.30469C13.5981 9.53743 13.4066 9.7666 13.2061 9.99219L11.0254 12.4468H15.1343Z" fill="white" fill-opacity="0.4"/>
</g>
<defs>
<clipPath id="clip0_11_55">
<rect width="20" height="20" fill="white"/>
</clipPath>
</defs>
</svg>
