<svg width="20" height="20" viewBox="0 0 20 20" fill="none" xmlns="http://www.w3.org/2000/svg">
<g clip-path="url(#clip0_11_58)">
<path d="M17 0.5H3C1.61929 0.5 0.5 1.61929 0.5 3V17C0.5 18.3807 1.61929 19.5 3 19.5H17C18.3807 19.5 19.5 18.3807 19.5 17V3C19.5 1.61929 18.3807 0.5 17 0.5Z" stroke="white" stroke-opacity="0.4"/>
<path d="M7.12598 5.14746V13H6.48682V5.9585L4.35986 6.74805V6.14111L7.01855 5.14746H7.12598ZM11.6699 8.73535H12.3252C12.7262 8.73535 13.061 8.66732 13.3296 8.53125C13.6017 8.3916 13.8058 8.20719 13.9419 7.97803C14.0815 7.74886 14.1514 7.49463 14.1514 7.21533C14.1514 6.90023 14.0923 6.62451 13.9741 6.38818C13.856 6.14827 13.6751 5.96208 13.4316 5.82959C13.1917 5.69352 12.8838 5.62549 12.5078 5.62549C12.1784 5.62549 11.8848 5.68994 11.627 5.81885C11.3691 5.94775 11.165 6.13216 11.0146 6.37207C10.8643 6.61198 10.7891 6.89844 10.7891 7.23145H10.1499C10.1499 6.80534 10.252 6.43115 10.4561 6.10889C10.6602 5.78304 10.9412 5.52881 11.2993 5.34619C11.6574 5.16357 12.0602 5.07227 12.5078 5.07227C12.9697 5.07227 13.3708 5.15641 13.7109 5.32471C14.0547 5.493 14.3197 5.73828 14.5059 6.06055C14.6956 6.38281 14.7905 6.7749 14.7905 7.23682C14.7905 7.47314 14.7386 7.70589 14.6348 7.93506C14.5345 8.16423 14.3841 8.37191 14.1836 8.55811C13.9831 8.74072 13.7342 8.88753 13.437 8.99854C13.1398 9.10954 12.7943 9.16504 12.4004 9.16504H11.6699V8.73535ZM11.6699 9.28857V8.86426H12.4004C12.848 8.86426 13.2311 8.91618 13.5498 9.02002C13.8685 9.12028 14.1299 9.26351 14.334 9.44971C14.5417 9.63232 14.6938 9.84538 14.7905 10.0889C14.8872 10.3324 14.9355 10.5938 14.9355 10.873C14.9355 11.2311 14.8765 11.548 14.7583 11.8237C14.6401 12.0994 14.4718 12.334 14.2534 12.5273C14.0386 12.7171 13.7843 12.8621 13.4907 12.9624C13.2007 13.0591 12.882 13.1074 12.5347 13.1074C12.2196 13.1074 11.9116 13.0609 11.6108 12.9678C11.3136 12.8747 11.0451 12.7368 10.8052 12.5542C10.5688 12.368 10.3809 12.1353 10.2412 11.856C10.1016 11.5731 10.0317 11.2472 10.0317 10.8784H10.6709C10.6709 11.2078 10.7497 11.4997 10.9072 11.7539C11.0648 12.0046 11.2832 12.2015 11.5625 12.3447C11.8454 12.4844 12.1694 12.5542 12.5347 12.5542C12.9035 12.5542 13.2186 12.4915 13.48 12.3662C13.745 12.2373 13.9473 12.0493 14.0869 11.8022C14.2266 11.5552 14.2964 11.2526 14.2964 10.8945C14.2964 10.5186 14.2122 10.2124 14.0439 9.97607C13.8792 9.73975 13.6483 9.56608 13.3511 9.45508C13.0575 9.34408 12.7155 9.28857 12.3252 9.28857H11.6699Z" fill="white" fill-opacity="0.4"/>
</g>
<defs>
<clipPath id="clip0_11_58">
<rect width="20" height="20" fill="white"/>
</clipPath>
</defs>
</svg>
