<svg width="20" height="20" viewBox="0 0 20 20" fill="none" xmlns="http://www.w3.org/2000/svg">
<g clip-path="url(#clip0_11_25)">
<path d="M17 0.5H3C1.61929 0.5 0.5 1.61929 0.5 3V17C0.5 18.3807 1.61929 19.5 3 19.5H17C18.3807 19.5 19.5 18.3807 19.5 17V3C19.5 1.61929 18.3807 0.5 17 0.5Z" stroke="white" stroke-opacity="0.4"/>
<path d="M9.61914 9.73535H10.2744C10.6755 9.73535 11.0103 9.66732 11.2788 9.53125C11.5509 9.3916 11.755 9.20719 11.8911 8.97803C12.0308 8.74886 12.1006 8.49463 12.1006 8.21533C12.1006 7.90023 12.0415 7.62451 11.9233 7.38818C11.8052 7.14827 11.6243 6.96208 11.3809 6.82959C11.141 6.69352 10.833 6.62549 10.457 6.62549C10.1276 6.62549 9.83398 6.68994 9.57617 6.81885C9.31836 6.94775 9.11426 7.13216 8.96387 7.37207C8.81348 7.61198 8.73828 7.89844 8.73828 8.23145H8.09912C8.09912 7.80534 8.20117 7.43115 8.40527 7.10889C8.60938 6.78304 8.89046 6.52881 9.24854 6.34619C9.60661 6.16357 10.0094 6.07227 10.457 6.07227C10.9189 6.07227 11.32 6.15641 11.6602 6.32471C12.0039 6.493 12.2689 6.73828 12.4551 7.06055C12.6449 7.38281 12.7397 7.7749 12.7397 8.23682C12.7397 8.47314 12.6878 8.70589 12.584 8.93506C12.4837 9.16423 12.3333 9.37191 12.1328 9.55811C11.9323 9.74072 11.6834 9.88753 11.3862 9.99854C11.089 10.1095 10.7435 10.165 10.3496 10.165H9.61914V9.73535ZM9.61914 10.2886V9.86426H10.3496C10.7972 9.86426 11.1803 9.91618 11.499 10.02C11.8177 10.1203 12.0791 10.2635 12.2832 10.4497C12.4909 10.6323 12.6431 10.8454 12.7397 11.0889C12.8364 11.3324 12.8848 11.5938 12.8848 11.873C12.8848 12.2311 12.8257 12.548 12.7075 12.8237C12.5894 13.0994 12.4211 13.334 12.2026 13.5273C11.9878 13.7171 11.7336 13.8621 11.4399 13.9624C11.1499 14.0591 10.8312 14.1074 10.4839 14.1074C10.1688 14.1074 9.86084 14.0609 9.56006 13.9678C9.26286 13.8747 8.9943 13.7368 8.75439 13.5542C8.51807 13.368 8.33008 13.1353 8.19043 12.856C8.05078 12.5731 7.98096 12.2472 7.98096 11.8784H8.62012C8.62012 12.2078 8.69889 12.4997 8.85645 12.7539C9.014 13.0046 9.23242 13.2015 9.51172 13.3447C9.7946 13.4844 10.1187 13.5542 10.4839 13.5542C10.8527 13.5542 11.1678 13.4915 11.4292 13.3662C11.6942 13.2373 11.8965 13.0493 12.0361 12.8022C12.1758 12.5552 12.2456 12.2526 12.2456 11.8945C12.2456 11.5186 12.1615 11.2124 11.9932 10.9761C11.8285 10.7397 11.5975 10.5661 11.3003 10.4551C11.0067 10.3441 10.6647 10.2886 10.2744 10.2886H9.61914Z" fill="white" fill-opacity="0.4"/>
</g>
<defs>
<clipPath id="clip0_11_25">
<rect width="20" height="20" fill="white"/>
</clipPath>
</defs>
</svg>
