<svg width="20" height="20" viewBox="0 0 20 20" fill="none" xmlns="http://www.w3.org/2000/svg">
<g clip-path="url(#clip0_11_31)">
<path d="M17 0.5H3C1.61929 0.5 0.5 1.61929 0.5 3V17C0.5 18.3807 1.61929 19.5 3 19.5H17C18.3807 19.5 19.5 18.3807 19.5 17V3C19.5 1.61929 18.3807 0.5 17 0.5Z" stroke="white" stroke-opacity="0.4"/>
<path d="M9.13037 10.1328L8.62549 9.98779L9.00684 6.17969H12.917V6.78125H9.55469L9.28076 9.41309C9.41683 9.31641 9.61377 9.22152 9.87158 9.12842C10.133 9.03174 10.4266 8.9834 10.7524 8.9834C11.0998 8.9834 11.4149 9.04248 11.6978 9.16064C11.9842 9.27523 12.2295 9.44352 12.4336 9.66553C12.6377 9.88395 12.7952 10.1489 12.9062 10.4604C13.0173 10.7684 13.0728 11.1175 13.0728 11.5078C13.0728 11.8838 13.0262 12.2293 12.9331 12.5444C12.84 12.8595 12.6986 13.1353 12.5088 13.3716C12.319 13.6043 12.0773 13.7852 11.7837 13.9141C11.4901 14.043 11.141 14.1074 10.7363 14.1074C10.4248 14.1074 10.1312 14.0645 9.85547 13.9785C9.58333 13.889 9.33984 13.7547 9.125 13.5757C8.91016 13.3966 8.7347 13.1711 8.59863 12.8989C8.46615 12.6268 8.38379 12.3081 8.35156 11.9429H8.96924C9.01221 12.2938 9.1071 12.5892 9.25391 12.8291C9.40072 13.069 9.59766 13.2498 9.84473 13.3716C10.0954 13.4933 10.3926 13.5542 10.7363 13.5542C11.0156 13.5542 11.2591 13.5094 11.4668 13.4199C11.6781 13.3304 11.8535 13.1997 11.9932 13.0278C12.1364 12.8524 12.2438 12.6393 12.3154 12.3887C12.3906 12.1344 12.4282 11.8444 12.4282 11.5186C12.4282 11.2393 12.3888 10.9832 12.3101 10.7505C12.2313 10.5142 12.1149 10.3083 11.9609 10.1328C11.8105 9.95378 11.6243 9.81592 11.4023 9.71924C11.1803 9.62256 10.9261 9.57422 10.6396 9.57422C10.2673 9.57422 9.97005 9.62435 9.74805 9.72461C9.52962 9.82487 9.32373 9.96094 9.13037 10.1328Z" fill="white" fill-opacity="0.4"/>
</g>
<defs>
<clipPath id="clip0_11_31">
<rect width="20" height="20" fill="white"/>
</clipPath>
</defs>
</svg>
