<svg width="20" height="20" viewBox="0 0 20 20" fill="none" xmlns="http://www.w3.org/2000/svg">
<g clip-path="url(#clip0_11_34)">
<path d="M17 0.5H3C1.61929 0.5 0.5 1.61929 0.5 3V17C0.5 18.3807 1.61929 19.5 3 19.5H17C18.3807 19.5 19.5 18.3807 19.5 17V3C19.5 1.61929 18.3807 0.5 17 0.5Z" stroke="white" stroke-opacity="0.4"/>
<path d="M11.8857 5.12061H11.9771V5.68457H11.8857C11.3916 5.68457 10.9512 5.76514 10.5645 5.92627C10.1813 6.0874 9.85726 6.32015 9.59229 6.62451C9.33089 6.92529 9.13216 7.29053 8.99609 7.72021C8.86003 8.1499 8.79199 8.63151 8.79199 9.16504V10.2446C8.79199 10.6063 8.84033 10.9303 8.93701 11.2168C9.03369 11.4997 9.16797 11.7414 9.33984 11.9419C9.51172 12.1424 9.71224 12.2946 9.94141 12.3984C10.1706 12.5023 10.4176 12.5542 10.6826 12.5542C10.944 12.5542 11.1785 12.5005 11.3862 12.3931C11.5939 12.2856 11.7694 12.1353 11.9126 11.9419C12.0594 11.7485 12.1704 11.5265 12.2456 11.2759C12.3244 11.0216 12.3638 10.7495 12.3638 10.4595C12.3638 10.1838 12.328 9.92415 12.2563 9.68066C12.1883 9.43359 12.0827 9.21516 11.9395 9.02538C11.7962 8.8356 11.6172 8.68701 11.4023 8.57959C11.1875 8.47217 10.9351 8.41846 10.645 8.41846C10.3156 8.41846 10.0076 8.49365 9.72119 8.64404C9.43473 8.79443 9.2002 8.99495 9.01758 9.24561C8.83854 9.49626 8.74365 9.77018 8.73291 10.0674L8.3623 10.062C8.38737 9.72542 8.46436 9.42284 8.59326 9.15429C8.72217 8.88215 8.89225 8.65119 9.10352 8.46142C9.31836 8.26806 9.56364 8.12126 9.83936 8.021C10.1187 7.91715 10.4194 7.86523 10.7417 7.86523C11.1177 7.86523 11.4453 7.93326 11.7246 8.06933C12.0075 8.20539 12.242 8.39339 12.4282 8.6333C12.618 8.86963 12.7594 9.14355 12.8525 9.45508C12.9492 9.76302 12.9976 10.0889 12.9976 10.4326C12.9976 10.8086 12.9438 11.1595 12.8364 11.4854C12.7326 11.8076 12.5786 12.0905 12.3745 12.334C12.174 12.5775 11.9305 12.7673 11.644 12.9033C11.3612 13.0394 11.0407 13.1074 10.6826 13.1074C10.2887 13.1074 9.93604 13.0322 9.62451 12.8818C9.31299 12.7314 9.04622 12.5238 8.82422 12.2588C8.60579 11.9938 8.4375 11.6895 8.31934 11.3457C8.20475 10.9984 8.14746 10.6278 8.14746 10.2339V9.54638C8.14746 8.88036 8.22445 8.27702 8.37842 7.73633C8.53239 7.19206 8.76335 6.72477 9.07129 6.33447C9.38281 5.94417 9.77132 5.64518 10.2368 5.4375C10.7059 5.22624 11.2555 5.12061 11.8857 5.12061Z" fill="white" fill-opacity="0.4"/>
</g>
<defs>
<clipPath id="clip0_11_34">
<rect width="20" height="20" fill="white"/>
</clipPath>
</defs>
</svg>
