<svg width="20" height="20" viewBox="0 0 20 20" fill="none" xmlns="http://www.w3.org/2000/svg">
<g clip-path="url(#clip0_11_43)">
<path d="M12.9976 10.9268C12.9976 11.3994 12.8866 11.7987 12.6646 12.1245C12.4461 12.4504 12.1489 12.6956 11.7729 12.8604C11.397 13.0251 10.9762 13.1074 10.5107 13.1074C10.0417 13.1074 9.61915 13.0251 9.24317 12.8604C8.8672 12.6956 8.56821 12.4504 8.3462 12.1245C8.12778 11.7987 8.01855 11.3994 8.01855 10.9268C8.01855 10.6152 8.07943 10.3324 8.20117 10.0781C8.3265 9.82031 8.50016 9.59831 8.72217 9.41211C8.94775 9.22233 9.21094 9.07552 9.51172 8.97168C9.8125 8.86784 10.1419 8.81592 10.5 8.81592C10.9727 8.81592 11.397 8.90723 11.7729 9.08984C12.1489 9.26888 12.4461 9.51595 12.6646 9.83105C12.8866 10.1462 12.9976 10.5114 12.9976 10.9268ZM12.353 10.9268C12.353 10.5938 12.2725 10.3019 12.1113 10.0513C11.9502 9.80062 11.73 9.60726 11.4507 9.47119C11.1714 9.33154 10.8545 9.26172 10.5 9.26172C10.1419 9.26172 9.82503 9.33154 9.54932 9.47119C9.2736 9.60726 9.05698 9.80062 8.89942 10.0513C8.74187 10.3019 8.66309 10.5938 8.66309 10.9268C8.66309 11.2741 8.74007 11.5695 8.89404 11.813C9.0516 12.0565 9.27002 12.2409 9.54932 12.3662C9.82861 12.4915 10.1491 12.5542 10.5107 12.5542C10.8724 12.5542 11.1911 12.4915 11.4668 12.3662C11.7425 12.2409 11.9591 12.0565 12.1167 11.813C12.2743 11.5695 12.353 11.2741 12.353 10.9268ZM12.7935 7.18848C12.7935 7.57161 12.6914 7.91357 12.4873 8.21436C12.2868 8.51156 12.0146 8.74609 11.6709 8.91797C11.3271 9.08626 10.9386 9.17041 10.5054 9.17041C10.0685 9.17041 9.67643 9.08626 9.3291 8.91797C8.98535 8.74609 8.71322 8.51156 8.5127 8.21436C8.31576 7.91357 8.21729 7.57161 8.21729 7.18848C8.21729 6.73372 8.31576 6.35059 8.5127 6.03906C8.71322 5.72396 8.98535 5.48405 9.3291 5.31934C9.67285 5.15462 10.0632 5.07227 10.5 5.07227C10.9333 5.07227 11.3218 5.15462 11.6655 5.31934C12.0129 5.48405 12.2868 5.72396 12.4873 6.03906C12.6914 6.35059 12.7935 6.73372 12.7935 7.18848ZM12.1543 7.18311C12.1543 6.87874 12.0809 6.61019 11.9341 6.37744C11.7909 6.14469 11.5939 5.96208 11.3433 5.82959C11.0962 5.69352 10.8151 5.62549 10.5 5.62549C10.1813 5.62549 9.89844 5.68815 9.65137 5.81348C9.40788 5.9388 9.21452 6.11784 9.07129 6.35059C8.93164 6.58333 8.86182 6.86084 8.86182 7.18311C8.86182 7.49821 8.93164 7.77035 9.07129 7.99951C9.21452 8.2251 9.40967 8.40055 9.65674 8.52588C9.90381 8.6512 10.1867 8.71387 10.5054 8.71387C10.8241 8.71387 11.1069 8.6512 11.354 8.52588C11.6011 8.40055 11.7962 8.2251 11.9395 7.99951C12.0827 7.77035 12.1543 7.49821 12.1543 7.18311Z" fill="white" fill-opacity="0.4"/>
<path d="M17 0.5H3C1.61929 0.5 0.5 1.61929 0.5 3V17C0.5 18.3807 1.61929 19.5 3 19.5H17C18.3807 19.5 19.5 18.3807 19.5 17V3C19.5 1.61929 18.3807 0.5 17 0.5Z" stroke="white" stroke-opacity="0.4"/>
</g>
<defs>
<clipPath id="clip0_11_43">
<rect width="20" height="20" fill="white"/>
</clipPath>
</defs>
</svg>
