<svg width="20" height="20" viewBox="0 0 20 20" fill="none" xmlns="http://www.w3.org/2000/svg">
<g clip-path="url(#clip0_11_46)">
<path d="M9.07129 12.4951H9.21094C9.78027 12.4951 10.2565 12.4128 10.6396 12.248C11.0228 12.0798 11.3289 11.8488 11.5581 11.5552C11.7909 11.258 11.9574 10.9106 12.0576 10.5132C12.1579 10.1157 12.208 9.68424 12.208 9.21875V8.12842C12.208 7.71663 12.1632 7.35498 12.0737 7.04346C11.9842 6.73193 11.8571 6.47233 11.6924 6.26465C11.5277 6.05339 11.3325 5.89404 11.1069 5.78662C10.8849 5.6792 10.6379 5.62549 10.3657 5.62549C10.0972 5.62549 9.85368 5.68278 9.63525 5.79736C9.42041 5.91195 9.23779 6.07129 9.0874 6.27539C8.94059 6.47591 8.82601 6.70687 8.74365 6.96826C8.66488 7.22607 8.62549 7.5 8.62549 7.79004C8.62549 8.05501 8.6613 8.31283 8.73291 8.56348C8.80811 8.81055 8.91732 9.03434 9.06055 9.23486C9.20378 9.4318 9.37923 9.58936 9.58691 9.70752C9.79818 9.8221 10.0417 9.87939 10.3174 9.87939C10.6289 9.87939 10.9046 9.82031 11.1445 9.70215C11.388 9.58398 11.5939 9.4318 11.7622 9.24561C11.9341 9.05583 12.0648 8.85173 12.1543 8.6333C12.2474 8.4113 12.2975 8.19645 12.3047 7.98877L12.627 7.9834C12.627 8.30924 12.5661 8.62077 12.4443 8.91797C12.3262 9.21159 12.1579 9.47298 11.9395 9.70215C11.7246 9.92773 11.4722 10.1068 11.1821 10.2393C10.8921 10.3717 10.5788 10.438 10.2422 10.438C9.87695 10.438 9.5529 10.3664 9.27002 10.2231C8.99072 10.0763 8.75618 9.87939 8.56641 9.63232C8.38021 9.38167 8.23877 9.10059 8.14209 8.78906C8.04541 8.47754 7.99707 8.15348 7.99707 7.81689C7.99707 7.44092 8.04899 7.08822 8.15283 6.75879C8.26025 6.42578 8.41602 6.13395 8.62012 5.8833C8.82422 5.62907 9.07129 5.43034 9.36133 5.28711C9.65495 5.14388 9.98617 5.07227 10.355 5.07227C10.7739 5.07227 11.1392 5.14925 11.4507 5.30322C11.7622 5.45361 12.02 5.66846 12.2241 5.94775C12.4318 6.22705 12.5858 6.55648 12.686 6.93604C12.7899 7.31559 12.8418 7.73454 12.8418 8.19287V8.81055C12.8418 9.27246 12.806 9.71468 12.7344 10.1372C12.6628 10.5597 12.5428 10.95 12.3745 11.3081C12.2098 11.6626 11.9878 11.9705 11.7085 12.2319C11.4292 12.4933 11.0837 12.6974 10.6719 12.8442C10.2601 12.9875 9.77311 13.0591 9.21094 13.0591H9.06592L9.07129 12.4951Z" fill="white" fill-opacity="0.4"/>
<path d="M17 0.5H3C1.61929 0.5 0.5 1.61929 0.5 3V17C0.5 18.3807 1.61929 19.5 3 19.5H17C18.3807 19.5 19.5 18.3807 19.5 17V3C19.5 1.61929 18.3807 0.5 17 0.5Z" stroke="white" stroke-opacity="0.4"/>
</g>
<defs>
<clipPath id="clip0_11_46">
<rect width="20" height="20" fill="white"/>
</clipPath>
</defs>
</svg>
