<svg width="15" height="15" viewBox="0 0 15 15" fill="none" xmlns="http://www.w3.org/2000/svg">
<path fill-rule="evenodd" clip-rule="evenodd" d="M7.5 1.25C9.18047 1.25 10.5511 2.57644 10.6221 4.23944L10.625 4.375V6.25C11.6605 6.25 12.5 7.08947 12.5 8.125V11.875C12.5 12.9105 11.6605 13.75 10.625 13.75H4.375C3.33947 13.75 2.5 12.9105 2.5 11.875V8.125C2.5 7.08947 3.33947 6.25 4.375 6.25V4.375C4.375 2.64911 5.77411 1.25 7.5 1.25ZM10.625 7.5H4.375C4.02982 7.5 3.75 7.77982 3.75 8.125V11.875C3.75 12.2202 4.02982 12.5 4.375 12.5H10.625C10.9702 12.5 11.25 12.2202 11.25 11.875V8.125C11.25 7.77982 10.9702 7.5 10.625 7.5ZM7.61017 2.50318L7.5 2.5C6.50145 2.5 5.68521 3.28057 5.62818 4.26483L5.625 4.375V6.25H9.375V4.375C9.375 3.37645 8.59443 2.56021 7.61017 2.50318L7.5 2.5L7.61017 2.50318Z" fill="#5E6467"/>
</svg>
