<svg width="43" height="43" viewBox="0 0 43 43" fill="none" xmlns="http://www.w3.org/2000/svg">
<circle cx="21.5" cy="21.5" r="21.5" fill="#2F53FF"/>
<path d="M26.6999 29.73H17.2999C16.5599 29.73 15.8099 29.2 15.5599 28.51L11.4199 16.92C10.9099 15.46 11.2799 14.79 11.6799 14.49C12.0799 14.19 12.8299 14.01 14.0899 14.91L17.9899 17.7C18.1099 17.77 18.2199 17.8 18.2999 17.78C18.3899 17.75 18.4599 17.67 18.5099 17.53L20.2699 12.84C20.7999 11.44 21.5799 11.23 21.9999 11.23C22.4199 11.23 23.1999 11.44 23.7299 12.84L25.4899 17.53C25.5399 17.66 25.6099 17.75 25.6999 17.78C25.7899 17.81 25.8999 17.78 26.0099 17.69L29.6699 15.08C31.0099 14.12 31.7899 14.31 32.2199 14.62C32.6399 14.94 33.0299 15.65 32.4799 17.2L28.4399 28.51C28.1899 29.2 27.4399 29.73 26.6999 29.73ZM12.6799 15.81C12.6999 15.95 12.7399 16.15 12.8399 16.41L16.9799 28C17.0199 28.1 17.1999 28.23 17.2999 28.23H26.6999C26.8099 28.23 26.9899 28.1 27.0199 28L31.0599 16.7C31.1999 16.32 31.2399 16.06 31.2499 15.91C31.0999 15.96 30.8699 16.07 30.5399 16.31L26.8799 18.92C26.3799 19.27 25.7899 19.38 25.2599 19.22C24.7299 19.06 24.2999 18.64 24.0799 18.07L22.3199 13.38C22.1899 13.03 22.0699 12.86 21.9999 12.78C21.9299 12.86 21.8099 13.03 21.6799 13.37L19.9199 18.06C19.7099 18.63 19.2799 19.05 18.7399 19.21C18.2099 19.37 17.6099 19.26 17.1199 18.91L13.2199 16.12C12.9899 15.96 12.8099 15.86 12.6799 15.81Z" fill="white"/>
<path d="M27.5 32.75H16.5C16.09 32.75 15.75 32.41 15.75 32C15.75 31.59 16.09 31.25 16.5 31.25H27.5C27.91 31.25 28.25 31.59 28.25 32C28.25 32.41 27.91 32.75 27.5 32.75Z" fill="white"/>
</svg>
