<svg width="36" height="355" viewBox="0 0 36 355" fill="none" xmlns="http://www.w3.org/2000/svg">
<path d="M17.9993 39.3332C19.8403 39.3332 21.3327 37.8408 21.3327 35.9998C21.3327 34.1589 19.8403 32.6665 17.9993 32.6665C16.1584 32.6665 14.666 34.1589 14.666 35.9998C14.666 37.8408 16.1584 39.3332 17.9993 39.3332Z" fill="#2F53FF"/>
<rect x="17" y="41" width="2" height="124" fill="#2F53FF"/>
<path d="M17.9993 173.333C19.8403 173.333 21.3327 171.841 21.3327 170C21.3327 168.159 19.8403 166.667 17.9993 166.667C16.1584 166.667 14.666 168.159 14.666 170C14.666 171.841 16.1584 173.333 17.9993 173.333Z" fill="#2F53FF"/>
<rect x="17" y="149" width="2" height="180" fill="#2F53FF"/>
<rect x="17" width="2" height="31" fill="#2F53FF"/>
<path fill-rule="evenodd" clip-rule="evenodd" d="M11.334 337C11.334 333.324 14.3247 330.333 18.0007 330.333C21.6767 330.333 24.6673 333.324 24.6673 337C24.6673 340.676 21.6767 343.667 18.0007 343.667C14.3247 343.667 11.334 340.676 11.334 337ZM18.0007 342.333C15.06 342.333 12.6673 339.941 12.6673 337C12.6673 334.059 15.06 331.667 18.0007 331.667C20.9413 331.667 23.334 334.059 23.334 337C23.334 339.941 20.9413 342.333 18.0007 342.333ZM18.0007 333.667C16.1627 333.667 14.6673 335.162 14.6673 337C14.6673 338.838 16.1627 340.333 18.0007 340.333C19.8387 340.333 21.334 338.838 21.334 337C21.334 335.162 19.8387 333.667 18.0007 333.667Z" fill="#2F53FF"/>
<mask id="mask0_793_7603" style="mask-type:luminance" maskUnits="userSpaceOnUse" x="11" y="330" width="14" height="14">
<path fill-rule="evenodd" clip-rule="evenodd" d="M11.334 337C11.334 333.324 14.3247 330.333 18.0007 330.333C21.6767 330.333 24.6673 333.324 24.6673 337C24.6673 340.676 21.6767 343.667 18.0007 343.667C14.3247 343.667 11.334 340.676 11.334 337ZM18.0007 342.333C15.06 342.333 12.6673 339.941 12.6673 337C12.6673 334.059 15.06 331.667 18.0007 331.667C20.9413 331.667 23.334 334.059 23.334 337C23.334 339.941 20.9413 342.333 18.0007 342.333ZM18.0007 333.667C16.1627 333.667 14.6673 335.162 14.6673 337C14.6673 338.838 16.1627 340.333 18.0007 340.333C19.8387 340.333 21.334 338.838 21.334 337C21.334 335.162 19.8387 333.667 18.0007 333.667Z" fill="white"/>
</mask>
<g mask="url(#mask0_793_7603)">
</g>
</svg>
